<!--
  - This file is part of Doodle Android.
  -
  - Doodle Android is free software: you can redistribute it and/or modify
  - it under the terms of the GNU General Public License as published by
  - the Free Software Foundation, either version 3 of the License, or
  - (at your option) any later version.
  -
  - Doodle Android is distributed in the hope that it will be useful,
  - but WITHOUT ANY WARRANTY; without even the implied warranty of
  - MERCHANTABILITY or FITNESS FOR A PARTICULAR PURPOSE.  See the
  - GNU General Public License for more details.
  -
  - You should have received a copy of the GNU General Public License
  - along with Doodle Android. If not, see <http://www.gnu.org/licenses/>.
  -
  - Copyright (c) 2019-2022 by Patrick Zedler
  -->

<svg
  xmlns="http://www.w3.org/2000/svg"
  id="svg8"
  version="1.1"
  viewBox="0 0 1080 1920">
  <rect
    id="bg"
    width="1080"
    height="1920"
    x="0"
    y="0"
    fill="#000"
    fill-opacity="1" />
  <path
    id="circle"
    fill="none"
    stroke="#804c43"
    stroke-opacity="1"
    stroke-width="5"
    d="M658.2 136.73c-43.84-.09-40.87 31.26-83.46 41.66-42.6 10.4-54.4-18.78-93.27 1.52-38.86 20.3-21.67 46.67-54.54 75.68-32.88 29-56.9 8.66-81.89 44.69-24.98 36.03 2.5 51.4-13.12 92.36-15.63 40.96-46.36 34.1-51.74 77.62-5.37 43.51 26.1 44.34 31.3 87.88 5.2 43.53-25.2 51.75-9.73 92.77 15.46 41.03 43.72 27.14 68.55 63.27s1.74 57.53 34.5 86.67c32.75 29.14 51.32 3.7 90.1 24.16 38.78 20.46 28.27 50.14 70.82 60.72 42.55 10.58 47.17-20.57 91-20.48 43.85.09 48.34 31.25 90.93 20.85 42.6-10.41 32.21-40.13 71.07-60.43 38.87-20.3 57.32 5.21 90.2-23.8 32.88-29 9.87-50.5 34.85-86.53 24.98-36.03 53.17-22.02 68.8-62.99 15.63-40.96-14.73-49.3-9.36-92.81 5.38-43.51 36.86-44.21 31.66-87.75-5.2-43.53-35.96-36.8-51.42-77.83s12.08-56.28-12.75-92.41c-24.83-36.13-48.94-15.88-81.7-45.02-32.76-29.14-15.46-55.45-54.24-75.9-38.78-20.46-50.71 8.68-93.26-1.9-42.55-10.58-39.45-41.91-83.3-42z"
    opacity="1" />
  <path
    id="oval"
    fill="none"
    stroke="#4a4a4a"
    stroke-opacity="1"
    stroke-width="5"
    d="M324.68 989.81a716.05 467.77 31.44 0 0-351.47 172.8 716.05 467.77 31.44 0 0 366.9 772.6 716.05 467.77 31.44 0 0 854.93-25.57 716.05 467.77 31.44 0 0-366.92-772.6A716.05 467.77 31.44 0 0 324.68 989.8Z"
    opacity="1" />
</svg>
