<svg
  xmlns="http://www.w3.org/2000/svg"
  id="svg8"
  version="1.1"
  viewBox="0 0 1080 1920">
  <rect
    id="rect833"
    width="1080"
    height="1920"
    x="0"
    y="0"
    fill="#e0dcd3" />
  <g id="g1000">
    <path
      id="path14"
      fill="none"
      stroke="#f4e3c9"
      stroke-linecap="round"
      stroke-width="69.28"
      d="M249.97 1485.11l129.26-94.05c38.42-27.94 41.62-78.67 17.61-111.66-23.57-32.4-72.97-45.76-111.66-17.6l-129.27 94.05" />
    <circle
      id="circle16"
      cx="250.13"
      cy="1485.95"
      r="27.78"
      fill="#f58551" />
  </g>
  <circle
    id="circle2"
    cx="717"
    cy="971.24"
    r="149.79"
    fill="none"
    stroke="#fff"
    stroke-linecap="round"
    stroke-linejoin="round"
    stroke-width="11.43" />
  <g id="g992">
    <circle
      id="circle6"
      cx="801.35"
      cy="1058.12"
      r="61.81"
      fill="#ff6550" />
    <path
      id="path8"
      fill="#fde8ca"
      d="M801.35 996.31a61.8 61.8 0 00-61.81 61.8 61.8 61.8 0 008.41 31.14 102.88 102.88 0 0088.83-81.77 61.8 61.8 0 00-35.43-11.17z" />
  </g>
  <g
    id="g1004"
    transform="rotate(-43.04)">
    <rect
      id="rect79"
      width="117"
      height="274.76"
      x="-533.02"
      y="1499.01"
      fill="#ffe5c5" />
    <rect
      id="rect81"
      width="27.77"
      height="274.76"
      x="-533.02"
      y="1499.01"
      fill="#b5afa1" />
  </g>
  <circle
    id="circle85"
    cx="148.27"
    cy="914.13"
    r="26.8"
    fill="#ccc6b8" />
  <g id="g988">
    <path
      id="path10"
      fill="none"
      stroke="#ffb9a1"
      stroke-linecap="round"
      stroke-width="69.66"
      d="M203.89 645.6c-63.43-125.84 35.5-243 157.84-230.76" />
    <circle
      id="circle16-3"
      cx="361.02"
      cy="415"
      r="27.78"
      fill="#ff815f" />
  </g>
  <g id="g996">
    <path
      id="path932"
      fill="none"
      stroke="#fff"
      stroke-linecap="round"
      stroke-width="8"
      d="M854.46 568.64L721.16 294.3c-15.91-32.74-54.16-45.95-86.88-30.05-32.85 15.96-46.04 53.96-30.05 86.87l80.86 166.4c10.33 21.25 32.22 28.8 53.46 18.49l170.89-83.04c21.36-10.39 28.83-32.19 18.5-53.46l-32.79-67.46" />
    <circle
      id="path940"
      fill="none"
      cx="659.99"
      cy="629.91"
      r="24.25"
      stroke="#fdea98"
      stroke-width="29.57"
      transform="rotate(-25.92)" />
  </g>
</svg>
