<!--
  - This file is part of Doodle Android.
  -
  - Doodle Android is free software: you can redistribute it and/or modify
  - it under the terms of the GNU General Public License as published by
  - the Free Software Foundation, either version 3 of the License, or
  - (at your option) any later version.
  -
  - Doodle Android is distributed in the hope that it will be useful,
  - but WITHOUT ANY WARRANTY; without even the implied warranty of
  - MERCHANTABILITY or FITNESS FOR A PARTICULAR PURPOSE.  See the
  - GNU General Public License for more details.
  -
  - You should have received a copy of the GNU General Public License
  - along with Doodle Android. If not, see <http://www.gnu.org/licenses/>.
  -
  - Copyright (c) 2019-2022 by Patrick Zedler
  -->

<svg
  xmlns="http://www.w3.org/2000/svg"
  xml:space="preserve"
  id="svg8"
  version="1.1"
  viewBox="0 0 1080 1920">
  <rect
    id="bg"
    width="1080"
    height="1920"
    x="0"
    y="0"
    fill="#f3e3cc" />
  <path
    id="blue"
    fill="#6f8fae"
    d="M900.6 1176.2C881 1076 860.6 976 841 875.7c-3.7-42.6-6-85.3-4.6-128-.5-41 7.8-81.8 22-120.2a1539.9 1539.9 0 0 1 67-160.9c3.5-6 10.6-16.7 11.5-20-91.2 100.4-178.2 205-278 297-55 48.1-116.2 88.4-175.5 131-45.7 32.5-92.7 63.4-137.6 97.2-22.5 18.8-48.3 33.3-72.6 49.7-46.1 29.4-92.1 59.5-138.9 87.6 15.6-47.4 34.4-94.2 51.8-141.2 16-46.4 43.5-87.6 68.3-129.5 24.3-39 49-77.9 75-115.7 52-57 103-115.1 155.6-171.7 62.8-60.4 127.3-120.4 201.6-166.8 70.3-42.4 153.3-64 214.2-121.4 51.7-49.3 92.5-108.7 132.7-167.5 9.7-10.6 9-25.2 12-38.3 6.6-21.2-11.6 8-17 12.3-21.2 23.7-39.8 50-63.4 71.4-46 44.9-93 89.4-146.9 125-65.7 45-134.4 85.5-201.4 128.6-18.7 12.5-38 24-58.5 33.5-73.6 35.8-149.2 69.4-229.2 88.2-44 8.5-89.1 10-133.9 11.1-34.2-.1-68.4.7-102.6-1.8 30.7-36.6 63.5-72.2 95-108.4 7.7-9.9 16.7-18.3 27-25.4 45-34.2 89.7-68.7 134.7-102.8 77.4-37.4 154.6-75.4 232-112.7 79.8-23 160.1-43.8 239.5-68a458.5 458.5 0 0 0 194-132.6c8.6-8.6 41-62 41-62s23 18.5 40 32.7c16.9 14.3 35.4 38.6 52.2 58.5 33.5 76.2 57.4 158.6 55.3 242.4.5 54.2 1 108.4-1 162.6.3 45.6-9.3 90.4-14.9 135.6-7.3 48.5-12.4 97.4-21 145.7-20.7 84.3-44.9 168.4-81.7 247.2-34.6 71.8-86.8 133-139.4 192.2-14.8 15.5-28.6 32.4-44.4 46.7z" />
  <path
    id="yellow"
    fill="#eac880"
    d="M549 8.7c-37.5 32-76.8 62-116.9 90.9a620 620 0 0 1-115 62.3c-46.4 20-94.7 34.9-143 49.2A976.5 976.5 0 0 0-86.3 337.6c-52.1 34.6-103.1 71.9-145.6 118.1-32.2 34.7-61 73.4-79 117.4-14.3 35-23.6 71.9-32.3 108.7-9.2 40.3-16.3 81.1-22.2 122-.4 11.6 0 23.1-.2 34.7v119.2c6.9 55.5 14.7 111.5 34 164.3 36.3 101 84.7 197.1 130.7 294 17.8 37 35.3 74 53.3 110.8 22.2 39.2 53.2 72.3 84.9 104a819 819 0 0 0 75.7 67.6c16.8 9.9 35.7 15.3 53.2 24 16.8 7 33.5 14.6 50.5 21.2 8 1.8 18 8.3 26 9.9 2.7-6.4 4.7-16.5 5.7-21.2 10.4-38.1 21.6-76 32.5-114 11.7-25.8 26.7-50 40.7-74.6a395 395 0 0 1 66-86.5c41.4-40.9 87.8-76.5 126.4-120.2 8.7-9.8 16.7-20.3 23.3-31.6 18.1-30 30.2-63.2 42.2-96a839.4 839.4 0 0 0 47-215c.6-12 0-26.5-.5-36.2-.5-9.7-1-24.2-4.7-35.8a457.4 457.4 0 0 0-21.9-77.8c-13.3-35.3-39.4-86-52-120-11.9-28.3-25.8-56.5-29.6-87.3-4-29.5-5.2-63 .5-88.8 5.7-25.9 13-47.9 25.2-67.6 12.3-19.8 17.8-25.2 28.9-43.7 20-33 40.3-65.9 60-99 23.8-42.3 44.5-87 54-134.8a500 500 0 0 0 9.5-124.1c-1.6-11.5-7.4-21.8-10.5-32.9-4-11.7-7.7-23.4-12-35-2.5-5.3-5.2-10.5-8.5-16.5-7.7 5.5-10.7 9-15.9 13.8Z" />
  <path
    id="orange"
    fill="#f0a775"
    d="M1024.5 802.7c-33.7 4.2-57.8 10.7-80.5 16.6-17.4 6.4-34.2 14-51.5 20.6L775 887c-37.2 22.8-61.1 37.9-85.5 51-45 27.3-90.6 53.6-135.3 81.4-15.1 11.6-29 24.8-44 36.4-51.9 42.4-105.2 83.5-164.2 115.5-45 25.2-90.4 49.7-135.8 74.1-22.1 12-43.8 24.8-64.6 38.8-28.8 18.7-57.6 37.2-86.3 56-13.1 9.3-23 22-34.8 32.8-2.9 1.6-5.8 5-3.2 8.2 2 1.5 4.2 2.7 6.3 4.2 16.4 11 32.5 22.6 48.8 33.8 35.5 24.6 70.8 49.4 106.2 74 24.5 17 49 33.8 73.8 50.2 22 12 45 22.1 67.4 33.1 55.1 26.1 111 51.5 170 67.5 48.8 4.7 113.8 6 160.7 6.5 130.4-15.2 155.3-32.8 219.2-66.4 80.5-49.4 135-91.4 209.2-146.9 24.9-23.8 51.9-45.4 74.7-71.2 18.2-20.2 35-41.6 51.5-63.2a596.6 596.6 0 0 0 64-106c19.4-41.2 33.7-67.7 44.8-112 4-15.2 11-46.1 15-61.5 1.7-7.9 6-28.2 6-36.2 0-11.8 2.3-46.6 2.5-58.4 0-35-2.4-51.7-9.7-70.8-6.8-17.9-29.7-24-44.7-35.8-52.6-13.9-106.3-25.7-160.9-27.5-47.8.3-65.8 3.6-101.6 8z" />
  <path
    id="red"
    fill="#f6bdac"
    d="m-703 3264.7 3310.5-.2c-28.2-35.8-1332.9-1420.8-1396.2-1552-14-25.8-25.7-53.8-46.5-75.2-20.4-21.3-46.4-35.9-72.5-48.8-24-11.7-48.8-22.2-71-37.1-17.2-11-32.3-22.7-47.1-34-43.6-36.5-85.6-75.5-135.1-103.8-27-15.3-56.4-28.2-87.6-31.4-28.7-2.6-57.3 4-84.1 13.8a507 507 0 0 0-61 27.1c-32.3 18.6-57.2 47.2-79 76.8-40.1 55.2-68.7 118-111.7 171.2-25.8 34-303 388.9-326.6 424.3-58.6 86.1-732.3 1081.4-792.1 1169.3z" />
</svg>
