<!--
  - This file is part of Doodle Android.
  -
  - Doodle Android is free software: you can redistribute it and/or modify
  - it under the terms of the GNU General Public License as published by
  - the Free Software Foundation, either version 3 of the License, or
  - (at your option) any later version.
  -
  - Doodle Android is distributed in the hope that it will be useful,
  - but WITHOUT ANY WARRANTY; without even the implied warranty of
  - MERCHANTABILITY or FITNESS FOR A PARTICULAR PURPOSE.  See the
  - GNU General Public License for more details.
  -
  - You should have received a copy of the GNU General Public License
  - along with Doodle Android. If not, see <http://www.gnu.org/licenses/>.
  -
  - Copyright (c) 2019-2023 by Patrick Zedler
  -->

<svg
  xmlns="http://www.w3.org/2000/svg"
  id="svg8"
  version="1.1"
  viewBox="0 0 1080 1920">
  <rect
    id="bg"
    width="1080"
    height="1920"
    x="0"
    y="0"
    fill="#212121" />
  <path
    id="sheet"
    fill="#32393c"
    d="M -662,1940 1179,-385 -661.5,-385 Z" />
  <path
    id="poly"
    fill="none"
    stroke="#494949"
    stroke-width="3.7"
    d="M836.913 931.104l60.072 790.18m-436.68-772.851l376.608-17.329 426.859 387.004-366.787 403.177L422.76 1419.19z" />
  <path
    id="line"
    fill="none"
    stroke="#32393c"
    stroke-width="30"
    d="M74.435 1605.84s162.08-97.149 270.902-89.531c115.524 8.086 143.595 48.767 317.112 151.913 83.704 49.757 214.58 76.59 329.077-61.206" />
  <path
    id="rect"
    fill="none"
    stroke="#494949"
    stroke-width="80.8"
    d="M251.791 1668.017l287.291-296.92" />
  <g id="circle_grid">
    <circle
      id="circle"
      cx="688.897"
      cy="372.187"
      r="255.51"
      fill="#997c6e" />
    <path
      id="grid"
      fill="#aeafae"
      d="m 740.09961,121.86133 v 9.26953 H 626.62305 v -6.74805 a 255.5098,255.5098 0 0 0 -2.30078,0.58985 v 6.1582 h -20.14063 a 255.5098,255.5098 0 0 0 -7.57812,2.79883 h 27.71875 V 246.88867 H 512.20312 v -59.26758 a 255.5098,255.5098 0 0 0 -2.90039,2.82227 v 56.44531 H 466.2207 a 255.5098,255.5098 0 0 0 -1.5,2.70117 h 44.58203 v 111.77539 h -75.68554 a 255.5098,255.5098 0 0 0 -0.12305,3.40039 h 75.80859 v 112.33985 h -53.38085 a 255.5098,255.5098 0 0 0 1.28124,2.79883 h 52.09961 v 74.02734 a 255.5098,255.5098 0 0 0 2.90039,2.82031 V 479.9043 h 112.11915 v 112.95898 h -64.21289 a 255.5098,255.5098 0 0 0 3.84179,2.19922 h 60.3711 v 24.33984 a 255.5098,255.5098 0 0 0 2.30078,0.58789 V 595.0625 h 113.47656 v 27.45117 a 255.5098,255.5098 0 0 0 2.70117,-0.56836 V 595.0625 h 71.04102 a 255.5098,255.5098 0 0 0 3.84765,-2.19922 H 742.80078 V 479.9043 h 111.81836 v 86.75781 a 255.5098,255.5098 0 0 0 2.70117,-2.33399 V 479.9043 h 63.27149 a 255.5098,255.5098 0 0 0 1.27929,-2.79883 H 857.32031 V 364.76562 h 86.97852 a 255.5098,255.5098 0 0 0 -0.1211,-3.40039 H 857.32031 V 249.58984 h 55.75196 a 255.5098,255.5098 0 0 0 -1.49805,-2.70117 h -54.25391 v -66.84375 a 255.5098,255.5098 0 0 0 -2.70117,-2.33398 v 69.17773 H 742.80078 V 133.92969 h 38.39063 a 255.5098,255.5098 0 0 0 -7.58008,-2.79883 h -30.81055 v -8.70313 a 255.5098,255.5098 0 0 0 -2.70117,-0.5664 z M 626.62305,133.92969 H 740.09961 V 246.88867 H 626.62305 Z M 512.20312,249.58984 H 624.32227 V 361.36523 H 512.20312 Z m 114.41993,0 H 740.09961 V 361.36523 H 626.62305 Z m 116.17773,0 H 854.61914 V 361.36523 H 742.80078 Z M 512.20312,364.76562 H 624.32227 V 477.10547 H 512.20312 Z m 114.41993,0 H 740.09961 V 477.10547 H 626.62305 Z m 116.17773,0 H 854.61914 V 477.10547 H 742.80078 Z M 626.62305,479.9043 H 740.09961 V 592.86328 H 626.62305 Z" />
  </g>
</svg>
