<!--
  - This file is part of Doodle Android.
  -
  - Doodle Android is free software: you can redistribute it and/or modify
  - it under the terms of the GNU General Public License as published by
  - the Free Software Foundation, either version 3 of the License, or
  - (at your option) any later version.
  -
  - Doodle Android is distributed in the hope that it will be useful,
  - but WITHOUT ANY WARRANTY; without even the implied warranty of
  - MERCHANTABILITY or FITNESS FOR A PARTICULAR PURPOSE.  See the
  - GNU General Public License for more details.
  -
  - You should have received a copy of the GNU General Public License
  - along with Doodle Android. If not, see <http://www.gnu.org/licenses/>.
  -
  - Copyright (c) 2019-2024 by Patrick Zedler
  -->

<svg
  xmlns="http://www.w3.org/2000/svg"
  id="svg8"
  version="1.1"
  viewBox="0 0 1080 1920">
  <rect
    id="bg"
    width="1080"
    height="1920"
    x="0"
    y="0"
    fill="#0e032d" />
  <circle
    id="circle_back"
    cx="540.19"
    cy="1232.64"
    r="251.22"
    fill="#a181de" />
  <path
    id="kidney_back"
    fill="#a0b0fb"
    d="M963.82 676.57c-76.44 7.31-192.81 52.4-268.69 1.17-73.31-49.5-74.69-147.89-89.6-226.92-11.86-62.85-54.58-125.26-120.84-139.04-77.8-16.18-169.06.85-224.28 59.46-78.24 83.06-79.34 208.25-61.07 315.82 31.36 184.64 170.93 323.98 354.77 386.49 183.84 62.5 314.15 45.68 469.59 17.37 104.9-19.1 204.65-90.6 238.63-151.09 33.99-60.49 29.67-180.9-52.83-233.55-82.5-52.64-169.24-37.02-245.68-29.7z" />
  <g id="line">
    <path
      id="line_end"
      fill="#312073"
      d="m 222.70117,108.64639 c -75.43349,-0.0683 -146.558714,35.14344 -192.240232,95.1719 -143.061638,187.9921 -175.752048,384.8339 -152.447268,547.7481 35.51865,248.2964 199.564105,450.52351 403.38672,541.42771 215.34586,96.0433 428.35762,74.7116 616.05273,57.6211 191.07558,-17.3984 427.79098,-51.168 427.79098,-51.168 131.9472,-18.6984 223.754,-140.8202 205.0567,-272.7676 -18.6974,-131.94801 -140.8196,-223.75582 -272.7676,-205.05861 0,0 -233.7322,32.8934 -403.84375,48.3829 -173.49208,15.7972 -312.60104,10.3867 -375.71484,-17.7618 -74.63707,-33.2878 -107.43338,-65.6298 -122.22266,-169.0156 -1.84917,-12.9268 0.68886,-101.3356 58.75196,-187.1523 73.96699,-109.32249 60.15567,-257.44459 -45.89453,-338.1485 -41.94784,-31.92266 -93.19507,-49.231 -145.90821,-49.2793 z" />
    <path
      id="line_middle"
      fill="#2d1c6c"
      d="m 145.94531,589.68939 a 241.3,241.3 0 0 0 -87.035154,16.2852 241.3,241.3 0 0 0 -137.86914,312.1582 C -11.875913,1091.3477 125.14814,1223.3042 281.40039,1292.9921 v 0 c 215.346,96.0435 428.35771,74.7116 616.05273,57.6211 191.07558,-17.3984 427.79098,-51.168 427.79098,-51.168 a 241.3,241.3 0 0 0 205.0567,-272.7676 241.3,241.3 0 0 0 -272.7676,-205.05861 c 0,0 -233.7322,32.8934 -403.84375,48.3829 -173.49217,15.7972 -312.60118,10.3867 -375.71484,-17.7618 -57.21755,-25.5188 -85.69617,-53.635 -106.9043,-108.3964 a 241.3,241.3 0 0 0 -225.125,-154.1563 z" />
    <path
      id="line_start"
      fill="#312073"
      d="m 1291.6094,819.23429 a 241.3,241.3 0 0 0 -34.0762,2.3867 c 0,0 -233.7322,32.8934 -403.84375,48.3829 -27.88341,2.5389 -54.97565,4.8027 -81.08007,6.5781 a 241.3,241.3 0 0 0 -224.36915,257.11721 241.3,241.3 0 0 0 257.11524,224.3711 c 31.20794,-2.1225 61.93022,-4.7084 92.0957,-7.4551 h 0.002 c 191.07563,-17.3984 427.79103,-51.168 427.79103,-51.168 a 241.3,241.3 0 0 0 205.0567,-272.7676 241.3,241.3 0 0 0 -238.6914,-207.44531 z" />
  </g>
  <circle
    id="circle_front"
    cx="1053.54"
    cy="946.71"
    r="329.19"
    fill="#8fe5de" />
  <path
    id="kidney_front"
    fill="#a0b0fb"
    d="M810.92 1192.58c-63.55 54.64-192.2 75.23-249.7 152.35-57.49 77.12-39.78 159.25 31.64 250.98 71.43 91.72 209.26 126.61 334.85 96.2 125.6-30.43 253.25-114.34 323.03-236.53 69.78-122.19 61.01-214.68 30.5-335.74-30.5-121.06-112.72-197.59-197.3-197.57-84.58.03-127.04 22.73-167.02 91.28-39.98 68.55-42.44 124.38-106 179.03z" />
  <circle
    id="dot"
    cx="717.19"
    cy="230.5"
    r="23.8"
    fill="#b7b7e0" />
  <g
    id="pill"
    transform="translate(-356.1,4.29)">
    <path
      id="pill_back"
      fill="#a181de"
      d="m 547.06445,1096.4531 a 42.700001,42.700001 0 0 0 -41.875,35.211 42.700001,42.700001 0 0 0 34.54883,49.5273 l 234.54688,41.7871 a 42.700001,42.700001 0 0 0 49.52734,-34.5488 42.700001,42.700001 0 0 0 -34.54883,-49.5274 L 554.7168,1097.1152 a 42.700001,42.700001 0 0 0 -7.65235,-0.6621 z" />
    <path
      id="pill_front"
      fill="#8fe5de"
      d="m 547.06445,1096.4531 a 42.700001,42.700001 0 0 0 -13.17383,2.1367 42.700001,42.700001 0 0 0 -3.24414,10.3497 42.700001,42.700001 0 0 0 34.54883,49.5273 l 234.54492,41.7871 a 42.700001,42.700001 0 0 0 20.82813,-1.4746 42.700001,42.700001 0 0 0 3.24414,-10.3496 42.700001,42.700001 0 0 0 -34.54883,-49.5274 L 554.7168,1097.1152 a 42.700001,42.700001 0 0 0 -7.65235,-0.6621 z" />
  </g>
</svg>
