<svg
  xmlns="http://www.w3.org/2000/svg"
  id="svg8"
  version="1.1"
  viewBox="0 0 1080 1920">
  <rect
    id="rect833"
    width="1080"
    height="1920"
    x="0"
    y="0"
    fill="#f3e5ca" />
  <path
    id="path29803"
    fill="#3f484f"
    d="M2426.4 2631c-70.5-355.7-353.9-875.1-424.5-1102-60.4-193.8-137.4-201.8-194.3-307-56.8-105.2-56.7-164-109.1-217.9-70.5-72.3-150.1-128.3-353-104.6-202.8 23.6-296.2 249-400 541.2-103.7 292.2-173 353.5-234.7 481.8-61.8 128.4-328.4 716.6-328.4 716.6z" />
  <path
    id="path2308"
    fill="#e5ad9c"
    d="M-478.8-758.8S-237.4-.2-156.4 113.7c81 114 156 133.3 219.6 141.6 63.7 8.2 146.6 33.4 215.3 83.4 68.7 50.1 199 153 375.1 109.9 74.2-18.2 122-47.7 174.3-89 37.2-41 71.1-114.4 87.6-176.1 28.4-106.6 45.4-199.3 112.2-245.8 66.9-46.6 161.3-66 238-695.6z" />
  <path
    id="red"
    fill="#c16a57"
    d="M729.7 951.4c-91.4-5.6-91.4-5.6-247.2-29.8-108.6-17-158.2-25.2-163.8-27.4-14.4-5.6-94-44.2-126.7-61.5-90.6-47.8-123.1-70.2-138.4-95.6a221 221 0 0 1-26.9-78.7c-2.5-24.4 26.6-68.2 53.9-81 19.2-9.1 52.3-12.6 87.3-9.1 26.6 2.5 151.5 23 227.6 37.3 65.8 12.3 65.8 12.3 119.2 14.7 104.4 4.6 136.4 2.1 166.5-13 29.5-15 40-47.5 21.5-66-12.2-12.3-17.4-13.3-63-12.5-92.4 1.7-120 .6-176.2-7.4-65.6-9.3-84.2-16-194.1-70.1-58.9-29-58.9-29-124-71.8a1493.3 1493.3 0 0 1-65.1-44c0-1 87.7-154 94.5-164.6 2-3.2 2.3-3 23.6 12.5 62.7 46 102.4 69.1 139.7 81.4 38.2 12.5 212.8 92.8 252.4 116.1 38 22.3 72 30.2 86.8 20.2 23.8-16 12.3-61.5-25.7-101.8-77-81.4-70.4-75.3-101.7-95.2C437.2 132 369.6 72.5 336.5 16 324.6-4 324.7-3.5 335-14.6c11.2-12 31-25.3 46.2-31.2 39.8-15.3 74-9 186.9 34.6a1831 1831 0 0 0 132.4 45.6c57.9 18.6 133 49.6 162 66.8 38 22.7 87.4 65.5 106.5 92.1l47 65.7c36.7 51.2 36.7 51.2 78 136.7 55.5 115 55.7 115.5 68.1 131.9 34.7 45.8 81 90.7 122 118.2 42.7 28.7 111.4 58 170 72.4l19.1 4.7-25.4 22c-25 21.5-73.7 55.6-126.4 88.4-94.6 59-180.9 91-283.8 105-21.3 3-205.5 19.3-212.8 19l-95-5.9z" />
  <path
    id="green"
    fill="#93af96"
    d="M354 2098.9a510.3 510.3 0 0 1-48.5-100.9 701.6 701.6 0 0 1-46-177c-7.3-57.5-17.5-194-15.7-210.8a19873.8 19873.8 0 0 1 12.2-114.4c5.6-32.2 3.8-70.1 12.3-98.2a847.7 847.7 0 0 1 38.4-99c6.5-14.9 32.8-66.3 45.3-88.3 52.5-92.5 117.8-183.4 173.4-241.3a141 141 0 0 0 11.6-13.7c42-60.8 108.3-133.4 158-173a642.3 642.3 0 0 1 161-92c1 0 8.1 17.9 11 27.6 8.4 29.1 9.4 67 2.6 100.5-9.9 49.2-45.5 130.5-90.1 206-2.1 3.5-5.8 11.2-8 17l-29.8 75.1a75646.3 75646.3 0 0 1-44 112c-.5 1.3-3.3 18.2-6.3 37.6L663 1447.6c-2 13-4.4 28.8-5.2 35.2a978.6 978.6 0 0 1-38 174.6c-9.8 29.7-16.3 45.5-42.4 103-17 49.4-53 104.7-67.8 152 .4.3 10.2-4.1 18.5-8.5 80.3-42.3 158.7-137.7 194.4-236.6 14.2-39.3 22.1-76.1 26.9-125.6 1.4-15 1.6-64.4.3-87-5.2-92.5 1-144.7 27-228.3 20-63.9 54.4-145.8 72.9-173.4 13.8-20.5 37.6-53.8 53.2-74.4 65.4-86 74-95.9 103.9-120.2 14.2-11.5 34.7-25.1 59.5-39.3a795.3 795.3 0 0 1 164.4-65.8c29.5-8.2 44.6-12.4 52.3-14.8l61.2-17.7c5.6-1.6 9-2.3 9.5-1.9.4.4-3.6 13.2-11 35.5-61 183.8-61.6 185.8-66.3 195-2.5 5-4.7 9.1-5 9.3-.2.2-3.8 6.8-7.8 14.7-32.6 62.7-64.6 123.1-97.8 187.3-15.4 29.8-45.5 114.7-62.2 175.6a739.7 739.7 0 0 0-28.9 194.5c-3.8 218.8-56.8 314-140.5 413.3l-85.9 75.6c-65.6 57.9-60.6 53.8-85.4 68.6a638.8 638.8 0 0 1-97.4 46.3c-81.3 27-157.4 46.4-244 68.4a1064 1064 0 0 1-67.4-104.1z" />
  <path
    id="blue"
    fill="#3f6eb2"
    d="M-263.6 2016.5a614.9 614.9 0 0 1-115.7-25c-15.7-5-15.7-5-27.4-22.1s-11.7-17.1-11.7-25.7c0-25 18.7-51.4 45.4-64.6 9.8-4.8 20.6-7.8 39.9-11 77.8-12.8 83.2-14.2 134-35.2 25.9-10.7 50.9-21.6 55.5-24.3 46-26.6 95.4-66.8 105.4-85.7 9.3-17.6 17.6-44.9 21.8-71.4 2.6-16.7 1.4-23-8.4-43.2a103.6 103.6 0 0 0-86-55.8c-28.4-2-40.6 5.1-88.8 52.3-30 29.5-30 29.5-64 74-18.6 24.6-34.6 45.6-35.4 46.9-1.6 2.1-2.5 1.5-14-9.6l-12.5-11.8-20.7-58.6-20.7-58.6-8.8-61.6c-10.7-74-10.6-73.2-9.3-73.1.6 0 15.2 2.7 32.5 6 31.3 6.2 31.3 6.2 59 6.2 46.3 0 67.2-1.4 78-5.1 19.5-6.7 28.2-16 32.6-35 6.6-28.2-.2-43-25.3-54.8-23.7-11-31-11.7-68.7-6.4-45 6.4-75.6 16-135 42.8-35 15.7-37.5 17.2-85.4 52.3a920.8 920.8 0 0 1-47.7 33.8c-2.4.2-9-17.6-12.7-34.2-11-49-5.3-86 20.6-135.1 18.8-35.6 13.5-30.2 93.7-93.8 71.5-56.6 71.5-56.6 94.8-68a496 496 0 0 1 131.8-44.8c47-7.9 115.3-4.5 182.4 9 14.5 2.9 30.7 4.7 80.8 8.8 88.5 7.3 149.1 7.4 213.6.2 46.4-5.1 96-1.5 175.4 12.8 70.5 12.7 63.6 10.1 135.4 51l64.4 36.8c.2.2-23 20-51.4 43.9-51.7 43.5-51.7 43.5-113 105.3l-61.1 61.8-29.5 44.9c-29.5 45-29.5 45-71.2 139-48.4 109.2-50.7 114.2-64.3 139.6-37.5 69.7-60.7 96.3-138.3 158C68 1958.1 80 1952.8-4 1975.2c-73.2 19.6-73.2 19.6-144 30.5-72.5 11.1-93.3 13-115.5 10.8z" />
</svg>
