<!--
  - This file is part of Doodle Android.
  -
  - Doodle Android is free software: you can redistribute it and/or modify
  - it under the terms of the GNU General Public License as published by
  - the Free Software Foundation, either version 3 of the License, or
  - (at your option) any later version.
  -
  - Doodle Android is distributed in the hope that it will be useful,
  - but WITHOUT ANY WARRANTY; without even the implied warranty of
  - MERCHANTABILITY or FITNESS FOR A PARTICULAR PURPOSE.  See the
  - GNU General Public License for more details.
  -
  - You should have received a copy of the GNU General Public License
  - along with Doodle Android. If not, see <http://www.gnu.org/licenses/>.
  -
  - Copyright (c) 2019-2025 by Patrick Zedler
  -->

<svg
  xmlns="http://www.w3.org/2000/svg"
  id="svg8"
  version="1.1"
  viewBox="0 0 1080 1920">
  <rect
    id="rect833"
    width="1080"
    height="1920"
    x="0"
    y="0"
    fill="#1c1715" />
  <path
    id="path4604"
    fill="#84504a"
    d="M-783-281S184 559 472 576c130 7 149-34 286-55 137-20 952 44 952 44l2-964-2494-1z" />
  <path
    id="center"
    fill="#bbb3a3"
    d="M529 1108c-24-3-45-9-69-22-24-12-27-22-14-48 10-22 16-27 48-41l18-10c27-21 29-22 48-25 49-7 100 0 128 17 73 43-1 116-130 129-16 2-15 2-29 0z" />
  <path
    id="path16974"
    fill="#273555"
    d="m-778-414 882 1s13 208 168 786c8 30 14 63 16 71 19 88 27 119 44 181 31 107 31 106 22 116-12 13-31 20-112 38-91 20-130 35-139 51-16 31 65 48 242 52 87 2 104 5 104 21 0 9-4 14-22 33-24 24-23 20-23 72 0 93-22 122-142 195-124 75-129 79-120 96 9 16 66 31 160 42 37 4 47 8 47 19 0 10-7 13-43 22-61 15-73 24-115 84a2905 2905 0 0 1-20 28c-34 47-40 82-19 112 24 37 54 53 132 73 42 11 51 10 150-19a2558 2558 0 0 1 52-14c58-15 72-22 94-41 16-15 54-61 61-73 27-42 63-98 86-126 17-23 26-30 43-41 27-19 73-29 109-65 28-29 46-79 46-122 0-35-8-51-52-111-30-40-34-48-31-68 5-30 11-34 104-67 87-31 97-36 100-49 3-20-9-24-85-34-90-12-130-20-164-33-41-15-48-40-17-64 9-6 18-11 76-39 38-19 49-46 55-136 2-40 4-54 9-89 5-36 7-106 7-141 0-389-23-761-23-761h811v2897H-778Z" />
  <path
    id="path10647"
    fill="#bbb3a3"
    d="M1821 647s-293-37-477-25c-211 14-292 39-353 68-41 20-83 44-81 66 3 22 34 33 71 41 42 9 144 41 205 68 62 27 197 64 334 76 137 11 300-2 300-2z" />
  <path
    id="path31332"
    fill="#2e555f"
    d="M664 1226c-20-1-40 9-48 26-20 40-7 111 42 243 24 64 24 64 24 78 0 42-36 52-62 17-8-10-10-17-14-54-10-76-39-119-84-125-56-8-68 59-18 101 42 35 51 55 29 66-8 4-35 4-57-1-52-12-89 8-89 50 0 41 20 51 114 57 56 3 65 5 76 17 19 21 21 42 6 119-88 440-96 252-158 825l197-2c185-565 115-490 198-836 10-42 17-48 82-82 49-26 59-52 41-103-10-25-12-33-9-52s10-34 21-60 17-44 14-68v-1h1l-8-36c-21-74-67-111-107-84-28 19-27 35-11 106l20 85c4 14 3 28 0 42-3 13-15 26-29 40-13 12-19 24-35 45-15 15-32 42-41 69-8 25-11 30-19 38-29 27-57-23-36-64 10-20 18-28 69-64 56-40 58-72 10-132-39-51-43-60-54-140-11-76-16-93-33-108-8-8-20-12-32-12z" />
  <path
    id="circle"
    fill="#bbb3a3"
    d="M129 510c-8-2-15-4-27-10-31-15-44-28-56-53-6-11-6-12-6-24 0-19 10-47 21-63 8-11 27-22 50-30 22-7 36-6 62 8 14 6 27 19 38 36 13 20 23 50 22 64-1 10-13 33-21 42-9 9-25 20-39 26-9 5-12 5-22 6a131 131 0 0 1-22-2z" />
  <path
    id="path43808"
    fill="#bbb3a3"
    d="m88 1176-26-6c-29-6-55-13-82-14-141-6-733 84-756 86l-1-121 799-10c26 0 112-2 123-4l42-10c19-7 27-14 35-30 8-18 9-29 3-44-3-9-11-19-17-22-7-4-18-6-31-5-20 1-25 1-58 11-36 8-73 23-106 24-244 12-758 70-788 73l-1-92c34-2 547-21 794-42 26-2 51-12 74-17 66-16 64-16 92-16 14 0 30 1 38 3 26 3 51 13 63 24 8 6 15 20 19 36 2 8 3 15 3 27 1 16 0 17-5 31-3 11-7 21-12 30a129 129 0 0 1-37 47l-28 13-39 16c-11 6-22 10-27 11-13 2-58 3-71 1z" />
  <path
    id="path48804"
    fill="#bbb3a3"
    d="M25 1445c-27-4-56-12-79-19s-23-7-42-7-100 24-680 84l2-94c318-32 501-79 682-94 13-1 46-1 57 1 17 4 29 10 62 31l27 16a403 403 0 0 0 91 24c12 2 17 6 14 14-2 9-17 20-37 28-13 5-34 11-50 14-14 2-36 3-47 2z" />
  <path
    id="path52244"
    fill="#bbb3a3"
    d="M986 1659c-18-8-51-33-58-44l-13-27c-10-23-17-34-22-38-3-2-5-2-10-1-12 2-23 7-46 22-31 19-46 28-55 30-9 4-50 5-66 3-15-2-27-8-37-18-9-10-13-19-14-37-1-13-1-13 4-24 5-10 13-18 19-22 7-4 22-5 48-5 21 0 28 0 36-3l18-6c4-3 15-11 27-24a156 156 0 0 1 77-45c15-4 42-2 114 5 17 2 253 54 699 71l1 99c-4-2-671-76-692-77-38-1-48 4-42 20 3 6 14 16 27 23 17 8 182 69 707 155l-1 52c-451-69-680-100-691-101-10-2-21-4-30-8z" />
</svg>
