<!--
  - This file is part of Doodle Android.
  -
  - Doodle Android is free software: you can redistribute it and/or modify
  - it under the terms of the GNU General Public License as published by
  - the Free Software Foundation, either version 3 of the License, or
  - (at your option) any later version.
  -
  - Doodle Android is distributed in the hope that it will be useful,
  - but WITHOUT ANY WARRANTY; without even the implied warranty of
  - MERCHANTABILITY or FITNESS FOR A PARTICULAR PURPOSE.  See the
  - GNU General Public License for more details.
  -
  - You should have received a copy of the GNU General Public License
  - along with Doodle Android. If not, see <http://www.gnu.org/licenses/>.
  -
  - Copyright (c) 2019-2022 by Patrick Zedler
  -->

<svg
  xmlns="http://www.w3.org/2000/svg"
  id="svg8"
  version="1.1"
  viewBox="0 0 1080 1920">
  <rect
    id="bg"
    width="1080"
    height="1920"
    x="0"
    y="0"
    fill="#171815" />
  <path
    id="circle"
    fill="#909b5d"
    d="M235.02 455.4c-21.58-.06-37.3 14.3-61.32 14.56-27.62.3-44.72-18.01-71.67-12-26.8 6-34.36 29.82-59.33 41.27-25.1 11.52-48.17 1.74-70.34 18.2-22.05 16.37-19.26 41.21-37.42 61.82-18.24 20.72-43.3 21.19-56.86 45.24-13.49 23.91-.83 45.49-9.04 71.7-8.23 26.34-30.95 36.96-33.54 64.45-2.58 27.33 17.74 41.89 20.91 69.17 3.2 27.42-13.23 46.35-4.43 72.52 8.76 26.03 33.25 31.06 47.24 54.7 14.07 23.75 6.76 47.72 25.45 68.04 18.58 20.22 43 14.86 65.4 30.75 22.5 15.99 25.59 40.86 50.93 51.82 25.2 10.91 45.33-3.92 72.24 1.5 27.08 5.43 40 26.92 67.6 26.63 27.47-.3 39.82-22.03 66.62-28.05 26.94-6.03 47.48 8.34 72.6-3.16 24.96-11.43 27.4-36.31 49.43-52.7 22.16-16.47 46.77-11.7 65.03-32.43 18.17-20.59 10.28-44.3 23.75-68.24 13.54-24.06 37.95-29.72 46.21-56.07 8.21-26.2-8.64-44.68-6.08-72.01 2.58-27.49 22.6-42.59 19.42-70.01-3.16-27.28-26.07-37.3-34.84-63.31-8.8-26.17 3.31-48.1-10.74-71.88-13.98-23.63-38.97-23.46-57.57-43.66-18.7-20.31-16.55-45.3-39.04-61.29-22.4-15.9-45.16-5.58-70.37-16.47-25.35-10.95-33.52-34.64-60.58-40.1a49.2 49.2 0 0 0-9.66-1z" />
  <path
    id="quad"
    fill="#30312c"
    d="M763.87-28.73c-94.34 3.4-172.65 77.77-178.93 174-1.59 29.72 4 59.4 16.3 87.54 12.3 28.14 16.7 59.36 14.66 90.95a206 206 0 0 1-27.05 88.52c-15.35 26.5-24.6 54.98-26.87 84.43-6.7 102.64 71.07 191.29 173.7 198 31.42 2.03 61.9-3.95 90.28-16.28 28.38-12.33 59.9-17.77 91.39-15.85 31.59 2.08 62.24 11.53 88.6 27.5 26.38 15.97 55.89 25.9 87.37 27.99 102.65 6.71 191.3-71.07 198-173.7 1.97-30.3-3.53-59.78-15.5-87.64-11.99-27.85-17.44-59.37-15.51-90.87a203 203 0 0 1 27-88.42 185.8 185.8 0 0 0 26.97-84.53c6.7-102.65-71.06-191.28-173.7-198a185.73 185.73 0 0 0-91 17.3 203 203 0 0 1-90.71 15.1C927.38 25.1 896.6 15.8 870.2-.2c-26.4-16.03-55.7-26.2-87.26-28.27l-.01.01c-6.42-.42-12.78-.5-19.06-.28z" />
  <path
    id="pill"
    fill="#30312c"
    d="M736.3 1161.93c-85.13-1.94-171.48 24.69-243.93 81.7-165.6 130.31-194 368.53-63.7 534.13l117.65 149.5c130.3 165.59 368.53 194 534.12 63.68 165.6-130.31 194-368.53 63.7-534.12l-117.65-149.5c-73.3-93.15-180.74-142.89-290.2-145.39z" />
  <circle
    id="dot"
    fill="#badbd0"
    cx="880"
    cy="1100"
    r="25" />
</svg>
